<svg xmlns="http://www.w3.org/2000/svg" xmlns:xlink="http://www.w3.org/1999/xlink" width="200" height="200" class="icon" p-id="3080" t="1554266132560" version="1.1" viewBox="0 0 1024 1024"><defs><style type="text/css"/></defs><path d="M864 128H544v-16a32 32 0 0 0-64 0v16H160a32 32 0 0 0 0 64h704a32 32 0 0 0 0-64z m-64 128a32 32 0 0 0-32 32v592H256V288a32 32 0 0 0-64 0v624a32 32 0 0 0 32 32h576a32 32 0 0 0 32-32V288a32 32 0 0 0-32-32zM416 784V304a32 32 0 0 0-64 0v480a32 32 0 0 0 64 0z m128 0V304a32 32 0 0 0-64 0v480a32 32 0 0 0 64 0z m128 0V304a32 32 0 0 0-64 0v480a32 32 0 0 0 64 0z" p-id="3081"/></svg>