<svg xmlns="http://www.w3.org/2000/svg" xmlns:xlink="http://www.w3.org/1999/xlink" width="200" height="200" class="icon" p-id="3964" t="1554271510963" version="1.1" viewBox="0 0 1024 1024"><defs><style type="text/css"/></defs><path d="M873.28 681.28a32 32 0 0 1 45.44 45.44l-128 128a32 32 0 0 1-45.44-45.44z" p-id="3965"/><path d="M800 832a32 32 0 0 1-64 0V256a32 32 0 0 1 64 0zM192 288a32 32 0 0 1 0-64h448a32 32 0 0 1 0 64zM192 480a32 32 0 0 1 0-64h448a32 32 0 0 1 0 64zM192 672a32 32 0 0 1 0-64h448a32 32 0 0 1 0 64zM192 864a32 32 0 0 1 0-64h448a32 32 0 0 1 0 64z" p-id="3966"/></svg>